# xmcd
#
# Track frame offsets: 
#        150
#        8750
#        21725
#        34680
#        48590
#        61908
#        75638
#        88915
#        100933
#        113568
#        122775
#        135758
#        149698
#        164763
#        177235
#        188903
#        201938
#        213900
#        226988
#        243603
#        257440
#        268480
#        283490
#        299285
#        311528
#
# Disc length: 4312 seconds
#
# Revision: 2
# Processed by: cddbd v1.5.2PL0 Copyright (c) Steve Scherf et al.
# Submitted via: ExactAudioCopy v0.99pb5
#
DISCID=7d10d619
DTITLE=Duke Ellington - The Small Groups
DYEAR=1992
DGENRE=Jazz
TTITLE0=Dancers In Love
TTITLE1=The Clothed Woman
TTITLE2=C-Jam Blues
TTITLE3=Charlie The Chulo
TTITLE4=Johnny Come Lately
TTITLE5=Caravan
TTITLE6=Chasin' Chippies
TTITLE7=Rent Party Blues
TTITLE8=Tonk
TTITLE9=Tip Toe Topic
TTITLE10=Great Times
TTITLE11=Frankie And Johnny
TTITLE12=Subtle Slough
TTITLE13=Without A Song
TTITLE14=Blues For Blanton
TTITLE15=Dooji Wooji
TTITLE16=Oscalypso
TTITLE17=Jeep's Blues
TTITLE18=Things Ain't What They Used To Be
TTITLE19=Good Queen Bess
TTITLE20=Squaty Roo
TTITLE21=Menelik The Lion Of Judah
TTITLE22=A Lull At Dawn
TTITLE23=Goin' Out The Back Way
TTITLE24=Who knows?
EXTD=YEAR: 1962
EXTT0=
EXTT1=
EXTT2=
EXTT3=
EXTT4=
EXTT5=
EXTT6=
EXTT7=
EXTT8=
EXTT9=
EXTT10=
EXTT11=
EXTT12=
EXTT13=
EXTT14=
EXTT15=
EXTT16=
EXTT17=
EXTT18=
EXTT19=
EXTT20=
EXTT21=
EXTT22=
EXTT23=
EXTT24=
PLAYORDER=
